# Made in Blockbench 4.1.5
mtllib test_obj_block.mtl

o sphere
v 0 -0.015625 0
v 0 0.984375 0
v 0 0.9173877018922194 0.24999999999999997
v 0 0.734375 0.4330127018922193
v 0 0.484375 0.5
v 0 0.2343750000000001 0.43301270189221935
v 0 0.051362298107780646 0.24999999999999997
v 0.12499999999999997 0.9173877018922194 0.21650635094610965
v 0.21650635094610962 0.734375 0.375
v 0.24999999999999997 0.484375 0.43301270189221935
v 0.21650635094610965 0.2343750000000001 0.37500000000000006
v 0.12499999999999997 0.051362298107780646 0.21650635094610965
v 0.21650635094610962 0.9173877018922194 0.125
v 0.37499999999999994 0.734375 0.2165063509461097
v 0.4330127018922193 0.484375 0.25000000000000006
v 0.375 0.2343750000000001 0.21650635094610973
v 0.21650635094610962 0.051362298107780646 0.125
v 0.24999999999999997 0.9173877018922194 1.5308084989341912e-17
v 0.4330127018922193 0.734375 2.651438096812267e-17
v 0.5 0.484375 3.061616997868383e-17
v 0.43301270189221935 0.2343750000000001 2.6514380968122673e-17
v 0.24999999999999997 0.051362298107780646 1.5308084989341912e-17
v 0.21650635094610965 0.9173877018922194 -0.12499999999999993
v 0.375 0.734375 -0.21650635094610957
v 0.43301270189221935 0.484375 -0.2499999999999999
v 0.37500000000000006 0.2343750000000001 -0.2165063509461096
v 0.21650635094610965 0.051362298107780646 -0.12499999999999993
v 0.12499999999999997 0.9173877018922194 -0.21650635094610965
v 0.21650635094610962 0.734375 -0.375
v 0.24999999999999997 0.484375 -0.43301270189221935
v 0.21650635094610965 0.2343750000000001 -0.37500000000000006
v 0.12499999999999997 0.051362298107780646 -0.21650635094610965
v 3.0616169978683824e-17 0.9173877018922194 -0.24999999999999997
v 5.302876193624534e-17 0.734375 -0.4330127018922193
v 6.123233995736766e-17 0.484375 -0.5
v 5.3028761936245346e-17 0.2343750000000001 -0.43301270189221935
v 3.0616169978683824e-17 0.051362298107780646 -0.24999999999999997
v -0.125 0.9173877018922194 -0.21650635094610962
v -0.2165063509461097 0.734375 -0.37499999999999994
v -0.25000000000000006 0.484375 -0.4330127018922193
v -0.21650635094610973 0.2343750000000001 -0.375
v -0.125 0.051362298107780646 -0.21650635094610962
v -0.2165063509461096 0.9173877018922194 -0.12500000000000008
v -0.3749999999999999 0.734375 -0.21650635094610984
v -0.43301270189221924 0.484375 -0.2500000000000002
v -0.37499999999999994 0.2343750000000001 -0.21650635094610987
v -0.2165063509461096 0.051362298107780646 -0.12500000000000008
v -0.24999999999999997 0.9173877018922194 -4.5924254968025736e-17
v -0.4330127018922193 0.734375 -7.954314290436801e-17
v -0.5 0.484375 -9.184850993605148e-17
v -0.43301270189221935 0.2343750000000001 -7.954314290436801e-17
v -0.24999999999999997 0.051362298107780646 -4.5924254968025736e-17
v -0.21650635094610962 0.9173877018922194 0.125
v -0.37499999999999994 0.734375 0.2165063509461097
v -0.4330127018922193 0.484375 0.25000000000000006
v -0.375 0.2343750000000001 0.21650635094610973
v -0.21650635094610962 0.051362298107780646 0.125
v -0.12500000000000008 0.9173877018922194 0.21650635094610957
v -0.21650635094610984 0.734375 0.37499999999999983
v -0.2500000000000002 0.484375 0.4330127018922192
v -0.21650635094610987 0.2343750000000001 0.3749999999999999
v -0.12500000000000008 0.051362298107780646 0.21650635094610957
vt 0.219853125 0.49985
vt 0.1875 0.49985
vt 0.2036765625 0.5625
vt 0.3566953125 0.875
vt 0.3685375 0.8125
vt 0.3125 0.8125
vt 0.3243421875 0.875
vt 0.060371875000000005 1
vt 0.06470625 0.9375
vt 0 0.9375
vt 0.004334375000000005 1
vt 0.06470625 0.9375
vt 0.060371875000000005 0.875
vt 0.004334375000000005 0.875
vt 0 0.9375
vt 0.2122875 0.6875
vt 0.2004453125 0.625
vt 0.1680921875 0.625
vt 0.15625 0.6875
vt 0.4375 0.8125
vt 0.469853125 0.8125
vt 0.4536765625 0.74985
vt 0.266728125 0.49985
vt 0.234375 0.49985
vt 0.2505515625 0.5625
vt 0.3566953125 0.8125
vt 0.3685375 0.75
vt 0.3125 0.75
vt 0.3243421875 0.8125
vt 0.13849687500000002 1
vt 0.14283125000000002 0.9375
vt 0.078125 0.9375
vt 0.082459375 1
vt 0.14283125000000002 0.9375
vt 0.13849687500000002 0.875
vt 0.082459375 0.875
vt 0.078125 0.9375
vt 0.2747875 0.6875
vt 0.2629453125 0.625
vt 0.2305921875 0.625
vt 0.21875 0.6875
vt 0.28125 0.5625
vt 0.313603125 0.5625
vt 0.2974265625 0.49985
vt 0.360478125 0.49985
vt 0.328125 0.49985
vt 0.3443015625 0.5625
vt 0.3566953125 0.75
vt 0.3685375 0.6875
vt 0.3125 0.6875
vt 0.3243421875 0.75
vt 0.060371875000000005 0.875
vt 0.06470625 0.8125
vt 0 0.8125
vt 0.004334375000000005 0.875
vt 0.14283125000000002 0.875
vt 0.13849687500000002 0.8125
vt 0.082459375 0.8125
vt 0.078125 0.875
vt 0.3372875 0.6875
vt 0.3254453125 0.625
vt 0.2930921875 0.625
vt 0.28125 0.6875
vt 0.375 0.5625
vt 0.407353125 0.5625
vt 0.3911765625 0.49985
vt 0.469853125 0.56235
vt 0.4375 0.56235
vt 0.4536765625 0.625
vt 0.3879453125 0.6875
vt 0.3997875 0.625
vt 0.34375 0.625
vt 0.3555921875 0.6875
vt 0.21662187500000002 1
vt 0.22095625000000002 0.9375
vt 0.15625 0.9375
vt 0.160584375 1
vt 0.22095625000000002 0.9375
vt 0.21662187500000002 0.875
vt 0.160584375 0.875
vt 0.15625 0.9375
vt 0.0560375 0.625
vt 0.0441953125 0.5625
vt 0.011842187499999997 0.5625
vt 0 0.625
vt 0.453125 1
vt 0.485478125 1
vt 0.4693015625 0.93735
vt 0.454228125 0.484225
vt 0.421875 0.484225
vt 0.4380515625 0.546875
vt 0.1066953125 0.625
vt 0.11853749999999999 0.5625
vt 0.0625 0.5625
vt 0.07434218749999999 0.625
vt 0.21662187500000002 0.875
vt 0.22095625000000002 0.8125
vt 0.15625 0.8125
vt 0.160584375 0.875
vt 0.06470625 0.8125
vt 0.060371875000000005 0.75
vt 0.004334375000000005 0.75
vt 0 0.8125
vt 0.1810375 0.625
vt 0.1691953125 0.5625
vt 0.1368421875 0.5625
vt 0.125 0.625
vt 0.46875 0.734375
vt 0.501103125 0.734375
vt 0.4849265625 0.671725
vt 0.501103125 0.484225
vt 0.46875 0.484225
vt 0.4849265625 0.546875
vt 0.4191953125 0.875
vt 0.4310375 0.8125
vt 0.375 0.8125
vt 0.3868421875 0.875
vt 0.13849687500000002 0.8125
vt 0.14283125000000002 0.75
vt 0.078125 0.75
vt 0.082459375 0.8125
vt 0.22095625000000002 0.8125
vt 0.21662187500000002 0.75
vt 0.160584375 0.75
vt 0.15625 0.8125
vt 0.2435375 0.625
vt 0.2316953125 0.5625
vt 0.1993421875 0.5625
vt 0.1875 0.625
vt 0.484375 0.8125
vt 0.516728125 0.8125
vt 0.5005515625 0.74985
vt 0.516728125 0.5936
vt 0.484375 0.5936
vt 0.5005515625 0.65625
vt 0.4191953125 0.8125
vt 0.4310375 0.75
vt 0.375 0.75
vt 0.3868421875 0.8125
vt 0.294746875 1
vt 0.29908125 0.9375
vt 0.234375 0.9375
vt 0.238709375 1
vt 0.29908125 0.9375
vt 0.294746875 0.875
vt 0.238709375 0.875
vt 0.234375 0.9375
vt 0.3060375 0.625
vt 0.2941953125 0.5625
vt 0.2618421875 0.5625
vt 0.25 0.625
vt 0 0.5
vt 0.032353125 0.5
vt 0.0161765625 0.43735
vt 0.532353125 0.93735
vt 0.5 0.93735
vt 0.5161765625 1
vt 0.4191953125 0.75
vt 0.4310375 0.6875
vt 0.375 0.6875
vt 0.3868421875 0.75
vt 0.294746875 0.875
vt 0.29908125 0.8125
vt 0.234375 0.8125
vt 0.238709375 0.875
vt 0.29908125 0.8125
vt 0.294746875 0.75
vt 0.238709375 0.75
vt 0.234375 0.8125
vt 0.3685375 0.625
vt 0.3566953125 0.5625
vt 0.3243421875 0.5625
vt 0.3125 0.625
vt 0.046875 0.5
vt 0.07922812500000001 0.5
vt 0.0630515625 0.43735
vt 0.532353125 0.859225
vt 0.5 0.859225
vt 0.5161765625 0.921875
vt 0.4191953125 0.625
vt 0.4310375 0.5625
vt 0.375 0.5625
vt 0.3868421875 0.625
vt 0.060371875000000005 0.75
vt 0.06470625 0.6875
vt 0 0.6875
vt 0.004334375000000005 0.75
vt 0.14283125000000002 0.75
vt 0.13849687500000002 0.6875
vt 0.082459375 0.6875
vt 0.078125 0.75
vt 0.4466625 1
vt 0.4348203125 0.9375
vt 0.4024671875 0.9375
vt 0.390625 1
vt 0.09375 0.5
vt 0.126103125 0.5
vt 0.1099265625 0.43735
vt 0.172978125 0.43735
vt 0.140625 0.43735
vt 0.1568015625 0.5
vt 0.4348203125 0.9375
vt 0.4466625 0.875
vt 0.390625 0.875
vt 0.4024671875 0.9375
vt 0.21662187500000002 0.75
vt 0.22095625000000002 0.6875
vt 0.15625 0.6875
vt 0.160584375 0.75
vt 0.29908125 0.75
vt 0.294746875 0.6875
vt 0.238709375 0.6875
vt 0.234375 0.75
vt 0.4622875 0.6875
vt 0.4504453125 0.625
vt 0.4180921875 0.625
vt 0.40625 0.6875
vt 0.1875 0.484375
vt 0.219853125 0.484375
vt 0.2036765625 0.421725
vt 0.266728125 0.421725
vt 0.234375 0.421725
vt 0.2505515625 0.484375
vt 0.0441953125 0.5625
vt 0.0560375 0.5
vt 0 0.5
vt 0.011842187499999997 0.5625
vt 0.060371875000000005 0.6875
vt 0.06470625 0.625
vt 0 0.625
vt 0.004334375000000005 0.6875
vt 0.37720625 1
vt 0.372871875 0.9375
vt 0.316834375 0.9375
vt 0.3125 1
vt 0.11853749999999999 0.5625
vt 0.1066953125 0.5
vt 0.07434218749999999 0.5
vt 0.0625 0.5625
vt 0.515625 0.734375
vt 0.547978125 0.734375
vt 0.5318015625 0.671725
vt 0.313603125 0.421725
vt 0.28125 0.421725
vt 0.2974265625 0.484375
vt 0.1691953125 0.5625
vt 0.1810375 0.5
vt 0.125 0.5
vt 0.1368421875 0.5625
vt 0.372871875 0.9375
vt 0.37720625 0.875
vt 0.3125 0.875
vt 0.316834375 0.9375
vt 0.14283125000000002 0.6875
vt 0.13849687500000002 0.625
vt 0.082459375 0.625
vt 0.078125 0.6875
vt 0.4935375 0.875
vt 0.4816953125 0.8125
vt 0.4493421875 0.8125
vt 0.4375 0.875
vt 0.328125 0.484375
vt 0.360478125 0.484375
vt 0.3443015625 0.421725
vn 0.06918418399436423 0.9636113749942803 0.2581988897471609
vn 0.18615678789738557 0.6947465906068656 0.6947465906068658
vn 0.2505628070857315 0.25056280708573164 0.9351131265310294
vn 0.2505628070857315 -0.2505628070857316 0.9351131265310294
vn 0.18615678789738557 -0.6947465906068656 0.6947465906068659
vn 0.06918418399436428 -0.9636113749942804 0.2581988897471611
vn 0.18901470575279666 0.9636113749942804 0.18901470575279666
vn 0.5085898027094803 0.6947465906068656 0.5085898027094804
vn 0.6845503194452978 0.2505628070857317 0.6845503194452979
vn 0.6845503194452978 -0.2505628070857316 0.6845503194452979
vn 0.5085898027094803 -0.6947465906068656 0.5085898027094805
vn 0.18901470575279683 -0.9636113749942804 0.18901470575279683
vn 0.2581988897471609 0.9636113749942804 0.06918418399436428
vn 0.6947465906068659 0.6947465906068655 0.18615678789738566
vn 0.9351131265310293 0.25056280708573175 0.25056280708573164
vn 0.9351131265310295 -0.25056280708573164 0.25056280708573164
vn 0.6947465906068658 -0.6947465906068656 0.18615678789738568
vn 0.2581988897471611 -0.9636113749942804 0.06918418399436434
vn 0.2581988897471609 0.9636113749942803 -0.06918418399436424
vn 0.6947465906068658 0.6947465906068656 -0.1861567878973856
vn 0.9351131265310295 0.2505628070857317 -0.2505628070857316
vn 0.9351131265310294 -0.2505628070857316 -0.25056280708573153
vn 0.6947465906068658 -0.6947465906068656 -0.1861567878973856
vn 0.2581988897471611 -0.9636113749942803 -0.0691841839943643
vn 0.18901470575279666 0.9636113749942803 -0.18901470575279658
vn 0.5085898027094805 0.6947465906068656 -0.5085898027094804
vn 0.684550319445298 0.25056280708573164 -0.6845503194452977
vn 0.684550319445298 -0.25056280708573153 -0.6845503194452977
vn 0.5085898027094804 -0.6947465906068656 -0.5085898027094803
vn 0.1890147057527968 -0.9636113749942803 -0.18901470575279675
vn 0.06918418399436424 0.9636113749942804 -0.2581988897471609
vn 0.18615678789738557 0.6947465906068656 -0.6947465906068659
vn 0.2505628070857316 0.25056280708573175 -0.9351131265310295
vn 0.2505628070857316 -0.25056280708573164 -0.9351131265310295
vn 0.1861567878973856 -0.6947465906068656 -0.6947465906068658
vn 0.0691841839943643 -0.9636113749942803 -0.2581988897471611
vn -0.06918418399436425 0.9636113749942803 -0.2581988897471609
vn -0.1861567878973856 0.6947465906068655 -0.6947465906068659
vn -0.2505628070857316 0.2505628070857317 -0.9351131265310295
vn -0.25056280708573153 -0.25056280708573153 -0.9351131265310294
vn -0.18615678789738568 -0.6947465906068656 -0.6947465906068659
vn -0.06918418399436431 -0.9636113749942803 -0.2581988897471611
vn -0.18901470575279658 0.9636113749942804 -0.18901470575279672
vn -0.5085898027094802 0.6947465906068656 -0.5085898027094805
vn -0.6845503194452977 0.25056280708573175 -0.684550319445298
vn -0.6845503194452977 -0.2505628070857316 -0.6845503194452979
vn -0.5085898027094802 -0.6947465906068656 -0.5085898027094805
vn -0.18901470575279675 -0.9636113749942804 -0.18901470575279686
vn -0.2581988897471608 0.9636113749942803 -0.0691841839943643
vn -0.6947465906068659 0.6947465906068656 -0.1861567878973857
vn -0.9351131265310293 0.25056280708573175 -0.25056280708573175
vn -0.9351131265310293 -0.25056280708573164 -0.25056280708573175
vn -0.6947465906068658 -0.6947465906068657 -0.1861567878973857
vn -0.2581988897471611 -0.9636113749942803 -0.06918418399436436
vn -0.2581988897471609 0.9636113749942803 0.06918418399436423
vn -0.6947465906068659 0.6947465906068656 0.18615678789738554
vn -0.9351131265310295 0.2505628070857317 0.2505628070857316
vn -0.9351131265310295 -0.2505628070857316 0.25056280708573153
vn -0.6947465906068659 -0.6947465906068656 0.1861567878973857
vn -0.2581988897471611 -0.9636113749942803 0.0691841839943643
vn -0.18901470575279666 0.9636113749942805 0.1890147057527966
vn -0.5085898027094804 0.6947465906068656 0.5085898027094803
vn -0.6845503194452979 0.2505628070857317 0.6845503194452977
vn -0.6845503194452978 -0.2505628070857316 0.6845503194452978
vn -0.5085898027094804 -0.6947465906068656 0.5085898027094803
vn -0.18901470575279683 -0.9636113749942804 0.18901470575279677
vn -0.06918418399436434 0.9636113749942803 0.2581988897471609
vn -0.18615678789738582 0.6947465906068655 0.6947465906068659
vn -0.25056280708573186 0.25056280708573175 0.9351131265310293
vn -0.2505628070857319 -0.25056280708573164 0.9351131265310293
vn -0.18615678789738577 -0.6947465906068657 0.6947465906068658
vn -0.06918418399436439 -0.9636113749942803 0.2581988897471611
usemtl m_0
f 3/1/1 8/2/1 2/3/1
f 3/4/2 4/5/2 9/6/2 8/7/2
f 4/8/3 5/9/3 10/10/3 9/11/3
f 5/12/4 6/13/4 11/14/4 10/15/4
f 6/16/5 7/17/5 12/18/5 11/19/5
f 12/20/6 7/21/6 1/22/6
f 8/23/7 13/24/7 2/25/7
f 8/26/8 9/27/8 14/28/8 13/29/8
f 9/30/9 10/31/9 15/32/9 14/33/9
f 10/34/10 11/35/10 16/36/10 15/37/10
f 11/38/11 12/39/11 17/40/11 16/41/11
f 17/42/12 12/43/12 1/44/12
f 13/45/13 18/46/13 2/47/13
f 13/48/14 14/49/14 19/50/14 18/51/14
f 14/52/15 15/53/15 20/54/15 19/55/15
f 15/56/16 16/57/16 21/58/16 20/59/16
f 16/60/17 17/61/17 22/62/17 21/63/17
f 22/64/18 17/65/18 1/66/18
f 18/67/19 23/68/19 2/69/19
f 18/70/20 19/71/20 24/72/20 23/73/20
f 19/74/21 20/75/21 25/76/21 24/77/21
f 20/78/22 21/79/22 26/80/22 25/81/22
f 21/82/23 22/83/23 27/84/23 26/85/23
f 27/86/24 22/87/24 1/88/24
f 23/89/25 28/90/25 2/91/25
f 23/92/26 24/93/26 29/94/26 28/95/26
f 24/96/27 25/97/27 30/98/27 29/99/27
f 25/100/28 26/101/28 31/102/28 30/103/28
f 26/104/29 27/105/29 32/106/29 31/107/29
f 32/108/30 27/109/30 1/110/30
f 28/111/31 33/112/31 2/113/31
f 28/114/32 29/115/32 34/116/32 33/117/32
f 29/118/33 30/119/33 35/120/33 34/121/33
f 30/122/34 31/123/34 36/124/34 35/125/34
f 31/126/35 32/127/35 37/128/35 36/129/35
f 37/130/36 32/131/36 1/132/36
f 33/133/37 38/134/37 2/135/37
f 33/136/38 34/137/38 39/138/38 38/139/38
f 34/140/39 35/141/39 40/142/39 39/143/39
f 35/144/40 36/145/40 41/146/40 40/147/40
f 36/148/41 37/149/41 42/150/41 41/151/41
f 42/152/42 37/153/42 1/154/42
f 38/155/43 43/156/43 2/157/43
f 38/158/44 39/159/44 44/160/44 43/161/44
f 39/162/45 40/163/45 45/164/45 44/165/45
f 40/166/46 41/167/46 46/168/46 45/169/46
f 41/170/47 42/171/47 47/172/47 46/173/47
f 47/174/48 42/175/48 1/176/48
f 43/177/49 48/178/49 2/179/49
f 43/180/50 44/181/50 49/182/50 48/183/50
f 44/184/51 45/185/51 50/186/51 49/187/51
f 45/188/52 46/189/52 51/190/52 50/191/52
f 46/192/53 47/193/53 52/194/53 51/195/53
f 52/196/54 47/197/54 1/198/54
f 48/199/55 53/200/55 2/201/55
f 48/202/56 49/203/56 54/204/56 53/205/56
f 49/206/57 50/207/57 55/208/57 54/209/57
f 50/210/58 51/211/58 56/212/58 55/213/58
f 51/214/59 52/215/59 57/216/59 56/217/59
f 57/218/60 52/219/60 1/220/60
f 53/221/61 58/222/61 2/223/61
f 53/224/62 54/225/62 59/226/62 58/227/62
f 54/228/63 55/229/63 60/230/63 59/231/63
f 55/232/64 56/233/64 61/234/64 60/235/64
f 56/236/65 57/237/65 62/238/65 61/239/65
f 62/240/66 57/241/66 1/242/66
f 58/243/67 3/244/67 2/245/67
f 58/246/68 59/247/68 4/248/68 3/249/68
f 59/250/69 60/251/69 5/252/69 4/253/69
f 60/254/70 61/255/70 6/256/70 5/257/70
f 61/258/71 62/259/71 7/260/71 6/261/71
f 7/262/72 62/263/72 1/264/72